<svg width="28" height="28" viewBox="0 0 28 28" fill="none" xmlns="http://www.w3.org/2000/svg">
<path d="M24.7778 14C24.7778 6.66666 19.3965 3 14.0152 3C8.60396 3 3.22266 6.66666 3.22266 14C3.22266 21.3333 8.60396 25 14.0152 25C19.3965 25 24.7778 21.3333 24.7778 14ZM21.2799 14C21.2799 18.929 17.6326 21.3634 14.0152 21.3634C10.3678 21.3634 6.7504 18.929 6.7504 14C6.7504 9.07104 10.3678 6.63661 14.0152 6.63661C17.6326 6.63661 21.2799 9.07104 21.2799 14Z" fill="#2C2C2C"/>
<path d="M14.2843 17.306C14.5235 15.623 15.6894 14.0902 17.244 14.0902V13.6694C15.6894 13.6694 14.5235 12.1366 14.2843 10.4536H13.8956C13.6864 12.1366 12.4905 13.6694 10.9658 13.6694V14.0902C12.4905 14.0902 13.6864 15.623 13.8956 17.306H14.2843Z" fill="#2C2C2C"/>
</svg>
